<svg xmlns="http://www.w3.org/2000/svg" width="96" height="16"><g fill="#585c64"><path d="M15 16H1c-.6 0-1-.4-1-1V1c0-.6.4-1 1-1h14c.6 0 1 .4 1 1v14c0 .6-.4 1-1 1zM2 14h12V2H2v12z"/><path data-color="color-2" d="M6 4c.6 0 1 .4 1 1s-.4 1-1 1-1-.4-1-1 .4-1 1-1zm-3 8l2-4 2 2 3-4 3 6z"/></g><g fill="#585c64"><path d="M24 2c1.1 0 2 .9 2 2v1c0 1.1-.9 2-2 2s-2-.9-2-2V4c0-1.1.9-2 2-2m0-2c-2.2 0-4 1.8-4 4v1c0 2.2 1.8 4 4 4s4-1.8 4-4V4c0-2.2-1.8-4-4-4z"/><path data-color="color-2" d="M25 12c1.5 0 2.8.8 3.5 2h-8.9c.7-1.2 2-2 3.5-2H25m0-2h-2c-3.3 0-6 2.7-6 6h14c0-3.3-2.7-6-6-6z"/></g><g fill="#585c64"><path d="M44 0H33v16h11c1.7 0 3-1.3 3-3V3c0-1.7-1.3-3-3-3zm1 13c0 .6-.4 1-1 1h-9V2h9c.6 0 1 .4 1 1v10z"/><path data-color="color-2" d="M37 9l2-2 2 2V3h-4z"/></g><path fill="#585c64" d="M56 0c-4.4 0-8 3.1-8 7s3.6 7 8 7h.6l5.4 2v-4.4c1.2-1.2 2-2.8 2-4.6 0-3.9-3.6-7-8-7zm4 10.8v2.3L56.9 12H56c-3.3 0-6-2.2-6-5s2.7-5 6-5 6 2.2 6 5c0 2.2-2 3.8-2 3.8zM72 0c-4.4 0-8 3.6-8 8s3.6 8 8 8 8-3.6 8-8-3.6-8-8-8zm5.9 9h-5.2l-1.8-4.4-1.8.8L70.5 9h-4.4c-.1-.3-.1-.7-.1-1 0-3.3 2.7-6 6-6s6 2.7 6 6c0 .3 0 .7-.1 1z"/><g fill="#585c64"><path data-color="color-2" d="M90 14h-4c0 1.1.9 2 2 2s2-.9 2-2z"/><path d="M95 11h-.5c-.7-.7-1.5-1.7-1.5-3V5c0-2.8-2.2-5-5-5s-5 2.2-5 5v3c0 1.3-.8 2.3-1.5 3H81c-.6 0-1 .4-1 1s.4 1 1 1h14c.6 0 1-.4 1-1s-.4-1-1-1z"/></g></svg>